<?xml version="1.0" encoding="UTF-8" standalone="no"?>
<svg
   xmlns:dc="http://purl.org/dc/elements/1.1/"
   xmlns:cc="http://creativecommons.org/ns#"
   xmlns:rdf="http://www.w3.org/1999/02/22-rdf-syntax-ns#"
   xmlns:svg="http://www.w3.org/2000/svg"
   xmlns="http://www.w3.org/2000/svg"
   viewBox="0 0 612.39374 248.56265"
   height="248.56265"
   width="612.39374"
   xml:space="preserve"
   id="svg2"
   version="1.1"><metadata
     id="metadata8"><rdf:RDF><cc:Work
         rdf:about=""><dc:format>image/svg+xml</dc:format><dc:type
           rdf:resource="http://purl.org/dc/dcmitype/StillImage" /><dc:title></dc:title></cc:Work></rdf:RDF></metadata><defs
     id="defs6" /><g
     transform="matrix(1.3333333,0,0,1.3333333,0,3.5473998e-6)"
     id="g10"><g
       id="g12"><path
         id="path14"
         style="fill:#35a942;fill-opacity:1;fill-rule:nonzero;stroke:none"
         d="M 161.445,139.816 80.723,186.422 0,139.816 V 46.605 L 80.723,0 161.445,46.605 Z" /><path
         id="path16"
         style="fill:#35a942;fill-opacity:1;fill-rule:nonzero;stroke:none"
         d="m 184.41,67.809 h 13.641 c 2.351,0 4.488,0.39 6.406,1.171 1.926,0.782 3.578,1.872 4.953,3.266 1.383,1.399 2.445,3.09 3.188,5.078 0.75,1.981 1.125,4.168 1.125,6.563 v 20.64 c 0,2.399 -0.375,4.602 -1.125,6.61 -0.743,2.011 -1.805,3.715 -3.188,5.109 -1.375,1.399 -3.027,2.484 -4.953,3.266 -1.918,0.781 -4.055,1.172 -6.406,1.172 H 184.41 Z m 6.11,47 h 7.531 c 2.851,0 5.148,-0.942 6.89,-2.829 1.739,-1.882 2.61,-4.367 2.61,-7.453 v -20.64 c 0,-3.082 -0.871,-5.551 -2.61,-7.407 -1.742,-1.863 -4.039,-2.796 -6.89,-2.796 h -7.531 z" /><path
         id="path18"
         style="fill:#35a942;fill-opacity:1;fill-rule:nonzero;stroke:none"
         d="m 219.012,94.98 c 0,-4.8 1.32,-8.57 3.968,-11.312 2.657,-2.738 6.313,-4.109 10.969,-4.109 4.656,0 8.305,1.371 10.953,4.109 2.645,2.742 3.969,6.512 3.969,11.312 v 7.422 h -23.75 v 3.235 c 0,3.086 0.781,5.508 2.344,7.265 1.562,1.762 3.723,2.641 6.484,2.641 2.031,0 3.789,-0.344 5.281,-1.031 1.5,-0.688 2.61,-1.688 3.329,-3 h 6.109 c -0.762,3.086 -2.469,5.508 -5.125,7.265 -2.648,1.762 -5.844,2.641 -9.594,2.641 -4.656,0 -8.312,-1.367 -10.969,-4.109 -2.648,-2.739 -3.968,-6.508 -3.968,-11.313 z m 6.109,1.907 h 17.641 V 94.98 c 0,-3.031 -0.774,-5.378 -2.313,-7.046 -1.531,-1.664 -3.699,-2.5 -6.5,-2.5 -2.804,0 -4.976,0.836 -6.515,2.5 -1.543,1.668 -2.313,4.015 -2.313,7.046 z" /><path
         id="path20"
         style="fill:#35a942;fill-opacity:1;fill-rule:nonzero;stroke:none"
         d="m 254.707,80.293 h 5.766 v 6.984 h 0.547 c 0.593,-2.445 1.789,-4.343 3.593,-5.687 1.813,-1.352 4.098,-2.031 6.86,-2.031 1.894,0 3.613,0.371 5.156,1.109 1.539,0.73 2.851,1.773 3.937,3.125 1.082,1.344 1.926,2.996 2.532,4.953 0.613,1.961 0.922,4.164 0.922,6.609 v 10.282 c 0,2.449 -0.309,4.652 -0.922,6.609 -0.606,1.961 -1.45,3.609 -2.532,4.953 -1.086,1.344 -2.398,2.387 -3.937,3.125 -1.543,0.727 -3.262,1.094 -5.156,1.094 -2.762,0 -5.047,-0.672 -6.86,-2.016 -1.804,-1.343 -3,-3.238 -3.593,-5.687 h -0.547 c 0.05,0.824 0.117,1.652 0.203,2.484 0.051,0.742 0.086,1.5 0.109,2.281 0.02,0.782 0.031,1.516 0.031,2.204 v 12.484 h -6.109 z m 6.109,15.062 v 10.282 c 0,3.086 0.754,5.531 2.266,7.343 1.52,1.805 3.547,2.704 6.078,2.704 2.719,0 4.852,-0.899 6.406,-2.704 1.563,-1.812 2.344,-4.257 2.344,-7.343 V 95.355 c 0,-3.187 -0.773,-5.66 -2.312,-7.421 -1.532,-1.758 -3.68,-2.641 -6.438,-2.641 -2.531,0 -4.558,0.906 -6.078,2.719 -1.512,1.804 -2.266,4.25 -2.266,7.343 z" /><path
         id="path22"
         style="fill:#35a942;fill-opacity:1;fill-rule:nonzero;stroke:none"
         d="m 304.652,121.418 c -2.312,0 -4.386,-0.367 -6.218,-1.094 -1.825,-0.738 -3.383,-1.789 -4.672,-3.156 -1.293,-1.375 -2.293,-3.039 -3,-5 -0.7,-1.957 -1.047,-4.133 -1.047,-6.531 V 82.871 c 0,-2.406 0.347,-4.586 1.047,-6.547 0.707,-1.957 1.707,-3.617 3,-4.984 1.289,-1.375 2.847,-2.426 4.672,-3.156 1.832,-0.739 3.906,-1.11 6.218,-1.11 4.25,0 7.676,1.262 10.282,3.781 2.601,2.524 4.148,6.04 4.64,10.547 h -6.094 c -0.281,-2.644 -1.203,-4.711 -2.765,-6.203 -1.555,-1.5 -3.574,-2.25 -6.063,-2.25 -2.718,0 -4.871,0.883 -6.453,2.641 -1.586,1.762 -2.375,4.187 -2.375,7.281 v 22.766 c 0,3.086 0.781,5.508 2.344,7.265 1.562,1.762 3.723,2.641 6.484,2.641 2.489,0 4.508,-0.742 6.063,-2.234 1.562,-1.5 2.484,-3.567 2.765,-6.204 h 6.094 c -0.492,4.5 -2.039,8.012 -4.64,10.532 -2.606,2.523 -6.032,3.781 -10.282,3.781 z" /><path
         id="path24"
         style="fill:#35a942;fill-opacity:1;fill-rule:nonzero;stroke:none"
         d="m 321.758,73.09 v -6.016 h 18.453 v 41.86 c 0,1.812 0.453,3.226 1.359,4.234 0.907,1 2.149,1.5 3.735,1.5 h 11.062 v 6.016 h -11.062 c -3.493,0 -6.231,-1.036 -8.219,-3.11 -1.992,-2.082 -2.984,-4.961 -2.984,-8.64 V 73.09 Z" /><path
         id="path26"
         style="fill:#35a942;fill-opacity:1;fill-rule:nonzero;stroke:none"
         d="m 359.609,94.98 c 0,-4.8 1.321,-8.57 3.969,-11.312 2.656,-2.738 6.313,-4.109 10.969,-4.109 4.656,0 8.305,1.371 10.953,4.109 2.645,2.742 3.969,6.512 3.969,11.312 v 7.422 h -23.75 v 3.235 c 0,3.086 0.781,5.508 2.343,7.265 1.563,1.762 3.723,2.641 6.485,2.641 2.031,0 3.789,-0.344 5.281,-1.031 1.5,-0.688 2.61,-1.688 3.328,-3 h 6.11 c -0.762,3.086 -2.469,5.508 -5.125,7.265 -2.649,1.762 -5.844,2.641 -9.594,2.641 -4.656,0 -8.313,-1.367 -10.969,-4.109 -2.648,-2.739 -3.969,-6.508 -3.969,-11.313 z m 6.11,1.907 h 17.64 V 94.98 c 0,-3.031 -0.773,-5.378 -2.312,-7.046 -1.531,-1.664 -3.699,-2.5 -6.5,-2.5 -2.805,0 -4.977,0.836 -6.516,2.5 -1.543,1.668 -2.312,4.015 -2.312,7.046 z" /><path
         id="path28"
         style="fill:#35a942;fill-opacity:1;fill-rule:nonzero;stroke:none"
         d="m 393.617,108.934 c 0,-1.907 0.301,-3.629 0.906,-5.172 0.614,-1.539 1.493,-2.848 2.641,-3.922 1.156,-1.082 2.547,-1.914 4.172,-2.5 1.633,-0.594 3.469,-0.891 5.5,-0.891 h 11.141 v -3.297 c 0,-2.5 -0.762,-4.445 -2.282,-5.843 -1.511,-1.395 -3.695,-2.094 -6.547,-2.094 -2.086,0 -3.859,0.418 -5.328,1.25 -1.468,0.836 -2.453,1.984 -2.953,3.453 h -6.109 c 0.633,-3.188 2.254,-5.707 4.859,-7.563 2.602,-1.863 5.828,-2.796 9.672,-2.796 4.613,0 8.234,1.168 10.859,3.5 2.625,2.324 3.938,5.562 3.938,9.718 v 27.907 h -5.578 v -7.704 h -0.531 c -0.594,2.594 -1.981,4.653 -4.157,6.172 -2.168,1.512 -4.808,2.266 -7.922,2.266 -3.761,0 -6.75,-1.125 -8.968,-3.375 -2.211,-2.25 -3.313,-5.285 -3.313,-9.109 z m 6.094,-0.141 c 0,2.25 0.656,4.012 1.969,5.281 1.312,1.274 3.172,1.906 5.578,1.906 1.531,0 2.953,-0.218 4.265,-0.656 1.313,-0.437 2.442,-1.054 3.391,-1.859 0.957,-0.813 1.707,-1.754 2.25,-2.828 0.539,-1.082 0.813,-2.258 0.813,-3.532 v -5.515 h -11 c -2.262,0 -4.039,0.637 -5.329,1.906 -1.293,1.274 -1.937,3.039 -1.937,5.297 z" /><path
         id="path30"
         style="fill:#35a942;fill-opacity:1;fill-rule:nonzero;stroke:none"
         d="m 430.453,80.293 h 5.766 v 6.984 h 0.547 c 0.593,-2.5 1.769,-4.41 3.531,-5.734 1.758,-1.32 4,-1.984 6.719,-1.984 1.945,0 3.675,0.355 5.187,1.062 1.52,0.711 2.813,1.703 3.875,2.984 1.063,1.274 1.863,2.778 2.406,4.516 0.539,1.731 0.813,3.625 0.813,5.688 v 26.875 h -6.109 V 94.902 c 0,-3.082 -0.727,-5.476 -2.172,-7.187 -1.45,-1.719 -3.461,-2.578 -6.032,-2.578 -2.586,0 -4.636,0.922 -6.156,2.765 -1.512,1.836 -2.266,4.321 -2.266,7.453 v 25.329 h -6.109 z" /><path
         id="path32"
         style="fill:#ffffff;fill-opacity:0.96948398;fill-rule:nonzero;stroke:none"
         d="m 73.973,169.684 12.269,-0.301 -0.144,-16.504 14.906,-14.242 4.621,-5.313 c 0,0 0.539,0.43 1.082,0.797 0.543,0.363 1.875,0.563 2.418,0.797 0.543,0.23 1.082,0.43 1.695,0.695 0.614,0.266 0.903,0.266 2.059,0.699 1.156,0.43 2.492,0.829 3.5,0.696 1.012,-0.133 4.187,-0.133 5.199,-0.266 1.008,-0.133 1.731,-0.265 2.563,-0.496 0.828,-0.234 2.129,-0.434 2.668,-0.93 0.543,-0.5 0.652,-0.664 1.48,-1.195 0.832,-0.531 2.168,-1.031 3.106,-1.961 0.937,-0.93 1.914,-1.527 2.527,-2.355 0.613,-0.832 1.516,-1.996 1.84,-2.993 0.324,-0.996 0.758,-1.957 0.758,-3.187 0,-1.227 -0.18,-3.852 -0.219,-4.316 -0.035,-0.465 -1.371,-3.883 -1.551,-4.149 -0.18,-0.265 -1.156,-1.195 -1.73,-2.058 -0.579,-0.864 -0.758,-1.329 -1.555,-1.926 -0.793,-0.598 -1.262,-1.129 -3.176,-1.696 -1.91,-0.562 -3.824,-0.996 -4.836,-1.226 -1.012,-0.234 -1.949,-0.399 -2.742,-0.531 -0.793,-0.133 -1.59,-0.266 -2.637,-0.368 -1.043,-0.097 -2.273,-0.199 -3.246,-0.132 -0.976,0.066 -1.156,-0.032 -2.492,0.398 -1.332,0.434 -2.234,0.731 -3.211,1.129 -0.973,0.398 -1.949,0.73 -2.922,1.328 -0.976,0.598 -1.984,0.797 -2.672,1.727 -0.687,0.929 -1.301,1.363 -1.59,2.359 -0.285,0.996 -0.468,1.824 -0.613,2.488 -0.144,0.664 -0.394,1.032 -0.504,1.895 -0.109,0.863 -0.398,1.262 -0.179,2.422 0.214,1.164 0.214,1.593 0.468,2.691 0.254,1.094 0.254,1.063 0.399,2.258 0.144,1.195 0.105,1.559 0.359,2.656 0.254,1.098 0.254,1.528 0.543,2.059 0.285,0.531 0.613,0.929 0.719,1.031 0.109,0.098 0.832,0.731 0.832,0.731 l -5.379,5.113 -5.195,2.09 -0.039,-5.446 c 0,0 0.289,-0.132 0.433,-0.23 0.145,-0.102 0.543,-0.266 0.903,-0.332 0.363,-0.067 0.542,0.098 1.082,-0.399 0.542,-0.5 0.652,-0.5 1.046,-0.898 0.399,-0.398 0.653,-0.863 0.868,-1.195 0.218,-0.332 0.363,-0.297 0.433,-0.996 0.074,-0.696 0.11,-0.965 0.11,-1.629 0,-0.664 0.07,-0.895 -0.145,-1.461 -0.219,-0.563 -0.219,-1.063 -0.723,-1.492 -0.504,-0.434 -0.828,-0.766 -1.406,-0.965 -0.578,-0.2 -0.797,-0.297 -1.59,-0.399 -0.793,-0.097 -1.297,-0.164 -1.984,-0.097 -0.688,0.066 -0.867,0.031 -1.59,0.23 -0.719,0.199 -1.187,0.332 -1.766,0.664 -0.578,0.332 -0.941,0.301 -1.41,0.832 -0.468,0.531 -0.758,0.332 -0.937,1.262 -0.18,0.93 -0.504,1.426 -0.36,2.16 0.145,0.731 -0.035,0.731 0.395,1.594 0.434,0.863 0.184,0.863 1.086,1.625 0.902,0.765 1.371,1.062 1.984,1.429 0.614,0.364 0.828,0.465 1.227,0.598 0.398,0.133 1.336,0.629 1.336,0.629 l -1.516,7.34 -5.738,4.348 -0.184,-27.227 5.848,-6.508 9.238,-9.265 c 0,0 1.52,0.234 1.735,0.332 0.214,0.101 0.324,0.332 0.828,0.5 0.507,0.164 0.617,0.23 1.625,0.332 1.011,0.097 1.265,0.066 1.949,0.132 0.687,0.067 1.226,0.133 1.984,0.133 0.758,0 1.41,-0.066 2.274,-0.199 0.867,-0.133 1.121,-0.066 2.093,-0.332 0.977,-0.266 1.59,-0.398 2.383,-0.73 0.793,-0.333 1.266,-0.465 1.66,-0.7 0.399,-0.234 0.832,-0.531 1.411,-0.965 0.574,-0.429 1.515,-1.093 1.875,-1.492 0.359,-0.398 0.902,-0.863 1.3,-1.629 0.395,-0.761 0.903,-1.66 1.047,-2.09 0.141,-0.433 0.395,-1.261 0.43,-1.429 0.039,-0.164 0.109,-4.051 0.109,-4.348 0,-0.301 0.18,-0.863 0,-1.594 -0.179,-0.73 -0.398,-1.363 -0.867,-2.093 -0.469,-0.731 -0.719,-1.328 -1.73,-2.223 -1.012,-0.898 -1.735,-1.461 -2.598,-1.828 -0.867,-0.363 -1.555,-0.664 -2.527,-0.996 -0.977,-0.332 -1.696,-0.43 -2.637,-0.598 -0.938,-0.164 -1.441,-0.23 -2.668,-0.23 -1.227,0 -2.059,0 -3.465,0.265 -1.41,0.266 -2.961,0.598 -3.504,0.828 -0.539,0.235 -1.082,0.332 -1.73,0.766 -0.649,0.43 -1.227,0.664 -2.094,1.328 -0.867,0.664 -1.66,1.328 -1.984,1.758 -0.325,0.434 -0.614,0.73 -0.758,1.394 -0.145,0.665 -0.399,1.563 -0.399,2.094 0,0.532 -0.035,1.492 0.036,2.059 0.074,0.562 0.144,1.992 0.183,2.223 0.035,0.234 0.215,1.328 0.324,1.66 0.11,0.332 0.18,1.261 0.36,1.793 0.179,0.531 0.758,1.726 0.832,2.293 0.07,0.562 0.863,1.226 0.863,1.226 l 0.688,1.063 -6.387,5.117 -0.867,-2.559 -0.364,-0.761 c 0,0 1.121,-1.165 1.59,-1.762 0.469,-0.598 0.543,-0.367 0.867,-0.996 0.325,-0.633 0.36,-0.832 0.649,-1.563 0.289,-0.73 0.433,-0.929 0.398,-1.293 -0.039,-0.367 -0.039,-0.633 -0.218,-0.797 -0.18,-0.168 -0.469,-0.433 -0.758,-0.566 -0.289,-0.133 -0.539,-0.332 -0.973,-0.398 -0.434,-0.067 -1.121,-0.2 -1.445,-0.2 -0.324,0 -0.684,-0.031 -1.047,-0.031 -0.36,0 -0.684,0 -1.153,0.133 -0.472,0.133 -0.613,0.098 -1.121,0.363 -0.503,0.266 -0.648,0.367 -1.011,0.699 -0.36,0.332 -0.539,0.399 -0.719,0.797 -0.184,0.399 -0.254,0.399 -0.324,0.895 -0.075,0.5 -0.11,0.531 -0.075,0.965 0.036,0.429 0.075,0.695 0.219,0.961 0.141,0.265 0.141,0.3 0.395,0.664 0.254,0.367 0.179,0.265 0.578,0.632 0.398,0.368 0.828,0.665 0.828,0.665 l 0.723,0.332 0.578,0.433 -0.684,5.41 -4.875,4.352 -0.937,-26 10.683,-9.797 c 0,0 0.903,0.266 1.157,0.398 0.25,0.133 0.718,0.301 1.152,0.465 0.433,0.168 0.976,0.301 1.516,0.367 0.543,0.067 1.878,0.164 2.851,-0.035 0.977,-0.199 1.551,-0.199 2.094,-0.332 0.543,-0.133 3.933,-1.629 3.933,-1.629 0,0 0.075,0.102 0.434,-0.429 0.359,-0.532 0.793,-0.965 1.191,-1.496 0.399,-0.532 0.868,-0.997 1.012,-1.395 0.145,-0.398 0.395,-0.73 0.504,-1.559 0.109,-0.832 0.18,-1.296 0.07,-2.226 -0.105,-0.93 0,-1.527 -0.214,-2.09 -0.215,-0.566 -0.723,-1.926 -1.336,-2.559 -0.614,-0.628 -0.723,-1.062 -1.336,-1.293 -0.614,-0.234 -1.297,-0.632 -2.524,-0.929 -1.23,-0.301 -2.457,-0.399 -3.285,-0.399 -0.832,0 -1.445,-0.132 -2.129,0 -0.687,0.133 -1.012,0.133 -1.879,0.496 -0.867,0.368 -1.191,0.465 -1.769,0.797 -0.574,0.332 -0.684,0.168 -1.262,0.731 -0.578,0.566 -0.613,0.433 -1.371,1.297 -0.758,0.863 -1.082,1.16 -1.445,2.058 -0.36,0.895 -0.469,0.762 -0.504,1.926 -0.035,1.16 -0.18,1.16 -0.035,1.926 0.144,0.762 0.214,1.094 0.359,1.461 0.144,0.363 0.324,0.961 0.578,1.293 0.254,0.332 0.469,0.765 0.578,0.898 0.11,0.133 1.117,1.492 1.117,1.492 L 82.02,84.078 81.695,66.547 89.418,61.5 l 6.75,-5.711 c 0,0 0.902,0.199 1.047,0.332 0.144,0.133 0.578,0.332 0.937,0.43 0.364,0.101 0.614,0.168 1.047,0.234 0.434,0.067 1.227,0.266 1.985,0.133 0.757,-0.133 1.589,-0.301 1.988,-0.398 0.394,-0.102 0.793,-0.102 1.371,-0.399 0.574,-0.301 1.047,-0.332 1.441,-0.766 0.399,-0.429 0.653,-0.597 0.832,-0.929 0.18,-0.332 0.325,-0.598 0.469,-1.094 0.145,-0.5 0.36,-0.965 0.324,-1.363 -0.035,-0.399 0.036,-0.567 -0.144,-1.098 -0.18,-0.531 -0.434,-1.195 -0.613,-1.492 -0.18,-0.301 -0.145,-0.5 -0.579,-0.93 -0.433,-0.433 -0.578,-0.929 -1.191,-1.062 -0.613,-0.133 -0.758,-0.266 -2.055,-0.399 -1.3,-0.133 -1.769,-0.265 -2.527,-0.101 -0.758,0.168 -0.688,0.035 -1.48,0.332 -0.793,0.301 -1.118,0.265 -1.915,0.699 -0.793,0.43 -1.152,0.465 -1.695,1.062 -0.543,0.598 -0.793,0.93 -0.793,0.93 l -0.726,1.66 c 0,0 0.011,0.2 0.05,0.375 0.039,0.176 0.051,0.352 0.157,0.602 0.101,0.246 0.175,0.387 0.277,0.586 0.105,0.199 0.207,0.34 0.281,0.457 0.078,0.117 0.383,0.574 0.473,0.656 0.09,0.082 0.562,0.789 0.562,0.789 L 81.348,64.543 80.973,42.371 c 0,0 0.707,-0.344 0.859,-0.344 0.156,0 1.074,0.118 1.356,-0.07 0.277,-0.187 0.382,-0.211 0.867,-0.426 0.484,-0.211 1.172,-0.422 1.734,-0.867 0.563,-0.445 1.07,-0.937 1.43,-1.269 0.355,-0.329 0.715,-0.54 1.07,-0.961 0.359,-0.422 0.742,-0.868 0.973,-1.317 0.226,-0.445 0.535,-1.055 0.687,-1.476 0.153,-0.422 0.305,-0.871 0.305,-1.364 0,-0.492 -0.051,-1.316 -0.051,-1.316 0,0 -0.023,-2.16 -0.176,-2.512 C 89.871,30.098 89.973,30.004 89.465,29.254 88.953,28.5 88.75,28.078 88.34,27.703 87.934,27.328 87.781,27.188 87.141,26.812 86.504,26.434 85.738,26.152 85.227,25.965 84.719,25.777 84.207,25.52 83.773,25.426 83.34,25.332 82.754,25.215 82.062,25.121 81.375,25.027 80.66,24.957 79.969,24.957 c -0.688,0 -0.942,-0.07 -1.785,0.164 -0.844,0.234 -1.481,0.328 -2.399,0.75 -0.918,0.422 -1.301,0.328 -1.941,0.801 -0.637,0.469 -0.918,0.609 -1.477,1.148 -0.562,0.539 -0.64,0.657 -0.945,1.012 -0.309,0.352 -0.36,0.07 -0.692,1.102 -0.332,1.035 -0.433,1.41 -0.433,1.878 0,0.469 0,0.446 0.078,1.172 0.074,0.731 0,0.801 0.23,1.598 0.227,0.801 0.075,1.012 0.79,1.973 0.714,0.965 0.894,1.058 1.351,1.574 0.461,0.516 0.59,0.586 1.047,1.008 0.461,0.425 0.41,0.425 0.996,0.918 0.586,0.492 0.715,0.562 1.149,0.75 0.433,0.187 1.074,0.445 1.3,0.515 0.231,0.071 0.867,0.211 0.867,0.211 l 0.821,0.239 -0.488,9.812 -6.711,-4.227 c 0,0 0.484,-1.007 0.511,-1.312 0.024,-0.309 0.051,-0.309 0.024,-0.801 -0.024,-0.492 0.05,-0.492 -0.074,-0.82 -0.129,-0.328 -0.028,-0.633 -0.641,-1.106 -0.609,-0.468 -0.942,-0.703 -1.223,-0.75 -0.281,-0.046 -0.664,-0.234 -1.074,-0.234 -0.406,0 -0.891,0 -1.352,0.07 -0.457,0.071 -0.636,-0.023 -1.097,0.141 -0.457,0.164 -0.84,0.187 -1.199,0.469 -0.356,0.281 -0.563,0.445 -0.637,0.75 -0.078,0.308 -0.231,0.636 -0.332,1.105 -0.102,0.469 -0.18,0.703 -0.18,1.031 0,0.332 0.102,0.848 0.102,0.848 0,0 0.539,1.195 0.742,1.41 0.203,0.211 0.945,1.008 1.047,1.078 0.101,0.071 1.148,0.469 1.148,0.469 0,0 0.61,-0.023 0.891,-0.047 0.281,-0.023 1.047,-0.07 1.277,-0.211 0.231,-0.14 0.356,-0.211 0.563,-0.351 0.203,-0.141 1.097,-0.938 1.097,-0.938 l 6.864,5.024 0.254,20.992 -12.043,-8.266 1.835,-3.008 c 0,0 0.254,-1.078 0.254,-1.64 0,-0.567 0,-0.848 -0.05,-1.129 -0.051,-0.281 0,-0.422 -0.254,-1.031 -0.254,-0.614 -0.664,-1.223 -0.918,-1.645 -0.254,-0.422 -0.203,-0.562 -0.766,-1.176 -0.562,-0.609 -0.816,-0.843 -1.48,-1.547 -0.664,-0.707 -2.246,-1.925 -2.246,-1.925 0,0 -0.254,-0.188 -0.868,-0.235 -0.613,-0.047 -1.734,-0.093 -2.144,-0.093 -0.406,0 1.226,-0.707 -1.582,0.234 -2.809,0.937 -4.031,1.453 -4.031,1.453 l -0.715,0.328 -1.379,0.942 -0.918,1.504 c 0,0 -0.664,1.359 -0.715,1.546 -0.051,0.188 -0.152,1.129 -0.203,1.504 -0.051,0.375 -0.258,1.926 -0.258,1.926 0,0 0.051,0.891 0.152,1.078 0.106,0.188 0.309,1.363 0.563,1.645 0.258,0.281 0.664,1.129 0.664,1.129 l 0.969,1.172 c 0,0 0.664,0.515 1.226,0.847 0.563,0.328 0.867,0.61 1.328,0.75 0.457,0.141 1.43,0.516 1.836,0.516 0.41,0 0.969,0.14 1.532,0.187 0.562,0.047 0.867,0.047 1.632,0.094 0.766,0.047 1.532,0.094 2.094,-0.094 0.563,-0.187 0.969,-0.422 1.481,-0.562 0.511,-0.141 0.918,-0.328 1.277,-0.563 0.355,-0.234 1.019,-0.754 1.019,-0.754 l 0.485,-0.445 6.609,5.871 5.129,5.375 0.102,9.582 -0.203,2.09 c 0,0 -0.153,2.113 -0.153,2.23 0,0.118 -0.765,11.903 -0.765,11.903 l -4.594,-3.332 c 0,0 -0.844,-0.586 -1.047,-0.754 C 71.09,99.715 70.91,99.598 70.887,99.457 70.859,99.316 70.73,98.918 70.73,98.59 c 0,-0.328 0,-0.328 -0.023,-0.61 -0.027,-0.285 0.129,-0.285 -0.102,-0.683 -0.23,-0.399 -0.281,-0.539 -0.433,-0.703 -0.156,-0.164 -0.281,-0.328 -0.36,-0.492 -0.074,-0.164 -0.074,-0.493 -0.101,-0.661 -0.027,-0.164 0.18,-0.632 0.18,-0.75 0,-0.117 0.05,-0.328 0.125,-0.562 0.078,-0.234 0.281,-0.539 0.461,-0.633 0.179,-0.098 0.461,-0.215 0.816,-0.355 0.359,-0.141 0.816,-0.305 1.074,-0.446 0.254,-0.14 0.485,-0.211 0.637,-0.351 0.152,-0.141 0.457,-0.305 0.687,-0.586 0.231,-0.281 0.485,-0.59 0.563,-0.778 0.078,-0.187 0.101,-0.281 0.101,-0.281 0,0 0.411,-0.656 0.411,-1.031 0,-0.375 0.074,-0.754 0.05,-1.199 C 74.789,88.023 74.738,87.391 74.688,87.156 74.637,86.918 74.586,86.613 74.383,86.262 74.176,85.91 74,85.512 73.77,85.301 73.539,85.09 73.285,84.855 72.953,84.711 72.621,84.57 72.52,84.477 72.035,84.336 c -0.488,-0.141 -0.59,-0.234 -1.277,-0.234 -0.692,0 -1.379,-0.047 -1.684,-0.047 -0.308,0 -0.867,-0.047 -1.199,0 -0.332,0.047 -0.742,0.07 -1.125,0.234 -0.383,0.164 -0.766,0.258 -1.148,0.445 -0.383,0.192 -0.688,0.286 -0.895,0.543 -0.203,0.258 -0.535,1.008 -0.586,1.149 -0.051,0.14 -0.254,0.469 -0.281,0.847 -0.024,0.375 -0.051,0.985 0.051,1.243 0.105,0.257 0.281,0.824 0.562,1.246 0.281,0.422 0.817,1.172 1.176,1.5 0.355,0.332 1.07,0.918 1.402,1.129 0.332,0.211 0.739,0.398 0.895,0.421 0.152,0.024 0.332,5.473 0.332,5.473 l -8.297,-7.094 1.164,-2.066 c 0,0 1.187,-2.523 1.297,-2.754 0.109,-0.234 1.121,-2.559 1.121,-2.957 0,-0.398 -0.145,-2.953 -0.254,-3.32 -0.109,-0.364 -0.613,-0.832 -0.648,-1.492 -0.039,-0.664 -0.289,-0.7 -0.868,-1.532 -0.578,-0.828 -1.406,-1.925 -1.769,-2.222 -0.359,-0.301 -1.117,-0.899 -1.731,-1.231 -0.613,-0.332 -1.191,-0.597 -1.625,-0.828 -0.433,-0.234 -1.625,-0.633 -1.949,-0.797 -0.324,-0.168 -1.047,-0.367 -1.371,-0.433 -0.324,-0.067 -0.976,-0.164 -1.371,-0.164 -0.398,0 -0.797,0 -1.227,0 -0.433,0 -1.335,0 -1.804,0.031 -0.469,0.035 -1.914,0.234 -2.094,0.265 -0.18,0.036 -1.879,0.235 -1.879,0.235 l -1.66,0.597 -1.66,0.997 -1.406,0.894 -1.118,1.363 -0.976,1.196 -1.047,1.363 -0.902,1.426 -0.614,1.527 -0.035,1.031 c 0,0 -0.074,1.063 0,1.196 0.07,0.132 0.434,1.89 0.434,1.89 l 0.578,1.196 0.613,1.328 1.227,1.894 c 0,0 1.515,1.129 1.66,1.262 0.144,0.133 1.441,1.226 1.84,1.492 0.398,0.266 1.261,0.766 1.66,0.93 0.398,0.168 1.047,0.465 1.551,0.566 0.507,0.098 2.636,0.496 2.886,0.496 0.254,0 2.278,0.133 2.278,0.133 l 1.586,-0.199 c 0,0 2.129,-0.332 2.382,-0.399 0.254,-0.066 1.407,-0.199 1.661,-0.363 0.254,-0.168 2.129,-1.195 2.129,-1.195 l 0.722,-0.399 15.485,14.778 -2.348,3.683 h -3.645 c 0,0 -0.578,-0.031 -1.082,0.067 -0.507,0.101 -1.804,0.234 -2.382,0.398 -0.579,0.168 -1.192,0.102 -1.696,0.5 -0.508,0.399 -1.047,0.496 -1.375,0.762 -0.324,0.266 -0.539,0.434 -0.758,0.832 -0.214,0.398 -0.828,0.797 -0.902,1.094 -0.07,0.3 0.074,3.586 0.074,3.586 0,0 1.157,1.23 1.407,1.496 0.253,0.265 0.687,0.828 1.191,1.094 0.504,0.265 1.191,0.464 1.625,0.5 0.434,0.031 0.973,0 1.586,0.031 0.617,0.035 1.516,0.066 1.879,0.035 0.359,-0.035 1.047,-0.168 1.301,-0.199 0.25,-0.035 1.226,-0.2 1.515,-0.399 0.285,-0.199 1.153,-0.664 1.153,-0.664 0,0 0.613,-0.797 0.722,-1.031 0.11,-0.231 0.254,-2.09 0.254,-2.09 0,0 0.145,-0.566 0.18,-1.098 0.035,-0.531 -0.074,-2.656 -0.074,-2.789 0,-0.132 0.109,-0.863 0.109,-0.863 l 2.527,-2.191 0.11,14.144 -1.41,3.321 -0.036,9.531 -19.308,-14.078 2.383,-4.383 c 0,0 0.25,-3.223 0.289,-3.422 0.035,-0.199 -0.039,-2.355 -0.11,-2.688 -0.074,-0.332 -0.433,-3.156 -0.504,-3.386 -0.074,-0.235 -0.902,-2.028 -1.047,-2.258 -0.144,-0.234 -1.121,-1.863 -1.335,-2.16 -0.219,-0.301 -1.661,-1.828 -1.879,-1.992 -0.215,-0.168 -0.758,-0.5 -1.153,-0.7 -0.398,-0.199 -2.238,-1.195 -2.562,-1.293 -0.328,-0.101 -1.446,-0.531 -1.844,-0.664 -0.394,-0.132 -1.875,-0.3 -2.055,-0.3 -0.179,0 -1.984,-0.032 -2.203,-0.032 -0.215,0 -2.199,0.098 -2.488,0.133 -0.289,0.031 -2.059,0.164 -2.602,0.332 -0.539,0.164 -1.839,0.399 -2.379,0.563 -0.543,0.168 -1.734,0.5 -1.988,0.664 -0.25,0.168 -0.902,0.398 -1.695,0.996 -0.793,0.597 -2.418,1.363 -2.563,1.629 -0.144,0.265 -0.757,0.765 -1.082,1.23 -0.324,0.465 -0.972,0.961 -1.117,1.395 -0.144,0.429 -0.472,1.328 -0.508,1.593 -0.035,0.266 -0.394,1.395 -0.433,1.528 -0.035,0.133 -0.504,1.359 -0.539,1.66 -0.035,0.297 -0.325,1.094 -0.289,1.293 0.035,0.199 -0.036,1.297 -0.036,1.297 0,0 0.106,2.222 0.145,2.621 0.035,0.398 0.504,1.992 0.504,1.992 l 1.48,2.789 c 0,0 2.957,2.656 3.102,2.758 0.144,0.098 2.418,1.426 2.707,1.559 0.289,0.132 2.094,0.863 2.418,0.996 0.324,0.132 2.781,0.832 3.031,0.863 0.254,0.035 1.844,0.199 2.094,0.199 0.254,0 1.371,0.102 1.949,0.067 0.578,-0.032 3.25,-0.297 3.61,-0.465 0.363,-0.164 3.464,-0.895 3.753,-0.961 0.29,-0.067 1.122,-0.199 1.262,-0.266 0.145,-0.066 1.192,-0.597 1.41,-0.699 0.215,-0.098 1.442,-0.731 1.442,-0.731 l 6.281,7.707 -2.383,2.989 -5.414,0.066 c 0,0 -0.648,-0.066 -0.793,-0.035 -0.144,0.035 -0.937,0.066 -1.48,0.266 -0.539,0.199 -1.082,0.265 -1.371,0.765 -0.29,0.496 -0.54,0.864 -0.723,1.16 -0.18,0.301 -0.863,2.125 -0.863,2.36 0,0.23 -0.075,1.957 -0.075,2.258 0,0.297 0.325,1.66 0.469,1.824 0.145,0.168 0.469,0.597 0.867,0.832 0.399,0.23 1.047,0.43 1.371,0.496 0.325,0.066 1.696,0.301 1.84,0.301 0.145,0 2.239,0 2.239,0 0,0 1.984,-0.465 2.128,-0.532 0.145,-0.066 0.723,-0.398 0.942,-0.566 0.215,-0.164 0.937,-0.762 1.187,-0.961 0.254,-0.199 1.121,-1.195 1.192,-1.394 0.074,-0.2 0.289,-1.032 0.363,-1.231 0.07,-0.199 0.434,-1.558 0.395,-1.758 -0.036,-0.199 -0.071,-0.765 -0.145,-0.898 -0.07,-0.133 -0.574,-1.16 -0.574,-1.16 l -0.942,-1.129 2.672,-2.559 12.489,10.492 0.324,26.168 z" /></g></g></svg>