<?xml version="1.0" encoding="UTF-8" standalone="no"?>
<svg
   xmlns:dc="http://purl.org/dc/elements/1.1/"
   xmlns:cc="http://creativecommons.org/ns#"
   xmlns:rdf="http://www.w3.org/1999/02/22-rdf-syntax-ns#"
   xmlns:svg="http://www.w3.org/2000/svg"
   xmlns="http://www.w3.org/2000/svg"
   viewBox="0 0 218.25999 252.02676"
   height="252.02676"
   width="218.25999"
   xml:space="preserve"
   id="svg2"
   version="1.1"><metadata
     id="metadata8"><rdf:RDF><cc:Work
         rdf:about=""><dc:format>image/svg+xml</dc:format><dc:type
           rdf:resource="http://purl.org/dc/dcmitype/StillImage" /><dc:title></dc:title></cc:Work></rdf:RDF></metadata><defs
     id="defs6" /><g
     transform="matrix(1.3333333,0,0,1.3333333,0,1.6340027e-6)"
     id="g10"><g
       id="g12"><g
         id="g14"><path
           id="path16"
           style="fill:#35a942;fill-opacity:1;fill-rule:nonzero;stroke:#060000;stroke-width:2.25;stroke-linecap:butt;stroke-linejoin:miter;stroke-miterlimit:4;stroke-dasharray:none;stroke-opacity:1"
           d="M 162.57,141.113 81.848,187.723 1.125,141.113 V 47.902 L 81.848,1.301 162.57,47.902 Z" /></g><path
         id="path18"
         style="fill:#ffffff;fill-opacity:0.96948398;fill-rule:nonzero;stroke:none"
         d="m 76.164,170.98 12.535,-0.308 -0.144,-16.863 15.23,-14.551 4.723,-5.43 c 0,0 0.551,0.438 1.105,0.813 0.555,0.371 1.914,0.574 2.469,0.816 0.555,0.234 1.106,0.438 1.734,0.711 0.625,0.27 0.922,0.27 2.102,0.711 1.184,0.441 2.547,0.848 3.578,0.711 1.031,-0.133 4.277,-0.133 5.313,-0.27 1.027,-0.136 1.765,-0.269 2.617,-0.508 0.847,-0.238 2.176,-0.441 2.726,-0.949 0.555,-0.511 0.668,-0.679 1.512,-1.222 0.852,-0.543 2.215,-1.051 3.176,-2.004 0.957,-0.949 1.953,-1.559 2.582,-2.407 0.625,-0.847 1.547,-2.039 1.879,-3.058 0.332,-1.016 0.773,-2 0.773,-3.254 0,-1.254 -0.183,-3.938 -0.222,-4.41 -0.036,-0.477 -1.403,-3.969 -1.586,-4.242 -0.184,-0.27 -1.18,-1.219 -1.766,-2.102 -0.594,-0.883 -0.777,-1.359 -1.59,-1.969 -0.812,-0.609 -1.289,-1.152 -3.246,-1.73 -1.953,-0.574 -3.906,-1.02 -4.941,-1.254 -1.035,-0.238 -1.993,-0.41 -2.801,-0.543 -0.813,-0.137 -1.625,-0.273 -2.695,-0.375 -1.067,-0.102 -2.325,-0.203 -3.317,-0.137 -0.996,0.067 -1.18,-0.031 -2.547,0.406 -1.359,0.446 -2.281,0.747 -3.281,1.157 -0.992,0.406 -1.992,0.746 -2.984,1.355 -1,0.61 -2.028,0.813 -2.731,1.766 -0.703,0.949 -1.328,1.39 -1.625,2.41 -0.293,1.016 -0.48,1.863 -0.625,2.543 -0.148,0.676 -0.406,1.055 -0.515,1.934 -0.114,0.882 -0.407,1.289 -0.184,2.476 0.219,1.188 0.219,1.629 0.477,2.75 0.261,1.117 0.261,1.086 0.41,2.305 0.144,1.222 0.105,1.594 0.367,2.715 0.258,1.121 0.258,1.562 0.555,2.105 0.289,0.543 0.625,0.949 0.734,1.055 0.109,0.097 0.848,0.746 0.848,0.746 l -5.497,5.223 -5.308,2.136 -0.039,-5.566 c 0,0 0.297,-0.133 0.441,-0.234 0.149,-0.106 0.555,-0.27 0.926,-0.34 0.371,-0.067 0.551,0.101 1.106,-0.407 0.55,-0.511 0.664,-0.511 1.066,-0.918 0.41,-0.406 0.668,-0.882 0.887,-1.222 0.222,-0.336 0.371,-0.301 0.445,-1.016 0.074,-0.711 0.109,-0.988 0.109,-1.664 0,-0.68 0.075,-0.914 -0.148,-1.492 -0.223,-0.578 -0.223,-1.086 -0.738,-1.527 -0.516,-0.442 -0.844,-0.782 -1.434,-0.985 -0.594,-0.203 -0.816,-0.305 -1.625,-0.406 -0.812,-0.102 -1.328,-0.168 -2.027,-0.102 -0.703,0.067 -0.887,0.032 -1.625,0.235 -0.735,0.203 -1.215,0.34 -1.805,0.679 -0.59,0.34 -0.961,0.309 -1.441,0.852 -0.477,0.543 -0.774,0.34 -0.957,1.289 -0.184,0.949 -0.516,1.457 -0.368,2.207 0.149,0.746 -0.035,0.746 0.403,1.629 0.445,0.883 0.187,0.883 1.109,1.66 0.922,0.781 1.402,1.086 2.027,1.461 0.629,0.371 0.848,0.473 1.254,0.609 0.407,0.137 1.364,0.645 1.364,0.645 l -1.547,7.5 -5.864,4.441 -0.187,-27.82 5.976,-6.652 9.438,-9.465 c 0,0 1.555,0.238 1.773,0.34 0.219,0.101 0.332,0.34 0.848,0.511 0.516,0.165 0.629,0.235 1.66,0.336 1.031,0.102 1.293,0.071 1.989,0.137 0.703,0.067 1.253,0.137 2.027,0.137 0.777,0 1.441,-0.07 2.324,-0.203 0.887,-0.137 1.145,-0.071 2.141,-0.34 0.996,-0.274 1.625,-0.406 2.433,-0.746 0.813,-0.34 1.293,-0.477 1.696,-0.715 0.41,-0.238 0.851,-0.543 1.441,-0.988 0.59,-0.438 1.551,-1.118 1.918,-1.524 0.367,-0.406 0.922,-0.883 1.328,-1.664 0.402,-0.777 0.922,-1.695 1.07,-2.137 0.145,-0.441 0.403,-1.289 0.438,-1.461 0.043,-0.167 0.113,-4.136 0.113,-4.441 0,-0.309 0.184,-0.883 0,-1.629 -0.183,-0.746 -0.406,-1.39 -0.887,-2.137 -0.48,-0.75 -0.734,-1.359 -1.769,-2.273 -1.031,-0.918 -1.77,-1.492 -2.652,-1.867 -0.887,-0.371 -1.59,-0.68 -2.582,-1.02 -1,-0.336 -1.735,-0.437 -2.696,-0.609 -0.957,-0.168 -1.472,-0.234 -2.726,-0.234 -1.254,0 -2.102,0 -3.539,0.269 -1.442,0.274 -3.028,0.613 -3.582,0.848 -0.551,0.238 -1.106,0.34 -1.766,0.781 -0.664,0.441 -1.254,0.68 -2.141,1.355 -0.886,0.68 -1.695,1.36 -2.027,1.797 -0.332,0.446 -0.629,0.746 -0.773,1.426 -0.149,0.68 -0.411,1.598 -0.411,2.141 0,0.543 -0.035,1.523 0.04,2.101 0.074,0.575 0.144,2.035 0.187,2.274 0.035,0.238 0.219,1.355 0.328,1.695 0.113,0.34 0.184,1.289 0.367,1.832 0.184,0.543 0.778,1.766 0.852,2.344 0.07,0.574 0.883,1.254 0.883,1.254 l 0.703,1.086 -6.528,5.226 -0.886,-2.613 -0.371,-0.777 c 0,0 1.144,-1.192 1.625,-1.801 0.48,-0.613 0.554,-0.375 0.886,-1.02 0.332,-0.644 0.368,-0.847 0.664,-1.597 0.293,-0.746 0.442,-0.95 0.407,-1.321 -0.043,-0.375 -0.043,-0.644 -0.223,-0.812 -0.184,-0.172 -0.48,-0.445 -0.777,-0.578 -0.293,-0.137 -0.551,-0.34 -0.993,-0.407 -0.445,-0.07 -1.144,-0.207 -1.476,-0.207 -0.332,0 -0.699,-0.031 -1.07,-0.031 -0.368,0 -0.7,0 -1.18,0.137 -0.481,0.137 -0.625,0.101 -1.145,0.371 -0.511,0.27 -0.66,0.375 -1.031,0.715 -0.367,0.34 -0.551,0.406 -0.734,0.812 -0.192,0.41 -0.262,0.41 -0.332,0.914 -0.078,0.512 -0.114,0.543 -0.078,0.989 0.039,0.437 0.078,0.711 0.226,0.98 0.141,0.27 0.141,0.309 0.403,0.68 0.257,0.375 0.183,0.269 0.589,0.644 0.407,0.375 0.848,0.68 0.848,0.68 l 0.738,0.34 0.59,0.441 -0.699,5.528 -4.981,4.449 L 85.273,87.48 96.188,77.469 c 0,0 0.921,0.269 1.183,0.406 0.254,0.137 0.734,0.309 1.176,0.477 0.441,0.171 0.996,0.304 1.551,0.375 0.554,0.066 1.918,0.164 2.914,-0.039 0.996,-0.204 1.582,-0.204 2.136,-0.336 0.555,-0.137 4.02,-1.668 4.02,-1.668 0,0 0.078,0.105 0.445,-0.438 0.367,-0.543 0.809,-0.984 1.215,-1.527 0.41,-0.543 0.887,-1.02 1.035,-1.426 0.149,-0.406 0.403,-0.746 0.516,-1.594 0.109,-0.847 0.183,-1.324 0.07,-2.273 -0.105,-0.949 0,-1.563 -0.219,-2.137 -0.218,-0.578 -0.738,-1.969 -1.363,-2.613 -0.629,-0.641 -0.742,-1.086 -1.367,-1.321 -0.629,-0.242 -1.324,-0.648 -2.578,-0.949 -1.258,-0.308 -2.512,-0.41 -3.356,-0.41 -0.851,0 -1.476,-0.133 -2.175,0 -0.703,0.137 -1.036,0.137 -1.922,0.508 -0.887,0.375 -1.215,0.476 -1.809,0.812 -0.586,0.34 -0.699,0.172 -1.289,0.75 -0.59,0.579 -0.625,0.442 -1.398,1.325 -0.778,0.882 -1.106,1.183 -1.477,2.101 -0.371,0.914 -0.48,0.781 -0.516,1.969 -0.035,1.187 -0.183,1.187 -0.035,1.969 0.145,0.777 0.219,1.117 0.367,1.492 0.145,0.371 0.329,0.98 0.59,1.32 0.258,0.34 0.477,0.781 0.59,0.918 0.113,0.137 1.141,1.524 1.141,1.524 l -11.246,6.824 -0.332,-17.914 7.89,-5.156 6.899,-5.836 c 0,0 0.922,0.203 1.07,0.339 0.145,0.137 0.59,0.34 0.957,0.438 0.371,0.105 0.625,0.172 1.07,0.238 0.442,0.071 1.254,0.274 2.028,0.137 0.773,-0.137 1.625,-0.309 2.031,-0.406 0.402,-0.106 0.809,-0.106 1.402,-0.407 0.586,-0.308 1.067,-0.339 1.469,-0.785 0.41,-0.437 0.668,-0.609 0.852,-0.949 0.183,-0.34 0.332,-0.609 0.48,-1.117 0.149,-0.512 0.367,-0.985 0.332,-1.391 -0.039,-0.41 0.035,-0.582 -0.148,-1.125 -0.184,-0.543 -0.446,-1.219 -0.625,-1.523 -0.188,-0.309 -0.149,-0.512 -0.594,-0.949 -0.441,-0.442 -0.59,-0.95 -1.215,-1.086 -0.629,-0.137 -0.777,-0.274 -2.101,-0.407 -1.329,-0.136 -1.809,-0.273 -2.582,-0.105 -0.774,0.172 -0.704,0.035 -1.512,0.34 -0.813,0.308 -1.145,0.269 -1.957,0.715 -0.813,0.437 -1.176,0.476 -1.731,1.086 -0.558,0.609 -0.812,0.949 -0.812,0.949 l -0.742,1.695 c 0,0 0.011,0.207 0.05,0.383 0.039,0.18 0.055,0.359 0.161,0.617 0.105,0.25 0.179,0.395 0.285,0.598 0.105,0.203 0.211,0.347 0.285,0.468 0.082,0.118 0.391,0.586 0.484,0.668 0.094,0.086 0.574,0.809 0.574,0.809 L 83.699,63.547 83.316,40.891 c 0,0 0.723,-0.352 0.879,-0.352 0.16,0 1.098,0.121 1.383,-0.07 0.285,-0.192 0.391,-0.219 0.887,-0.438 0.496,-0.215 1.199,-0.429 1.773,-0.886 0.574,-0.454 1.094,-0.957 1.461,-1.297 0.363,-0.336 0.731,-0.551 1.094,-0.981 0.367,-0.429 0.758,-0.887 0.992,-1.344 0.231,-0.457 0.547,-1.078 0.703,-1.511 0.157,-0.43 0.313,-0.887 0.313,-1.391 0,-0.504 -0.055,-1.348 -0.055,-1.348 0,0 -0.023,-2.207 -0.18,-2.566 -0.156,-0.355 -0.054,-0.453 -0.574,-1.219 -0.523,-0.769 -0.73,-1.203 -1.148,-1.586 -0.414,-0.382 -0.571,-0.527 -1.227,-0.91 -0.648,-0.387 -1.433,-0.676 -1.953,-0.867 -0.519,-0.191 -1.043,-0.453 -1.488,-0.551 -0.442,-0.094 -1.039,-0.215 -1.746,-0.308 -0.703,-0.098 -1.434,-0.168 -2.141,-0.168 -0.703,0 -0.961,-0.075 -1.824,0.168 -0.86,0.238 -1.512,0.332 -2.449,0.765 -0.938,0.43 -1.328,0.336 -1.985,0.817 -0.648,0.48 -0.937,0.625 -1.508,1.175 -0.574,0.551 -0.656,0.668 -0.964,1.032 -0.317,0.359 -0.371,0.074 -0.707,1.129 -0.34,1.054 -0.446,1.437 -0.446,1.918 0,0.48 0,0.457 0.082,1.195 0.074,0.75 0,0.82 0.235,1.633 0.23,0.82 0.078,1.035 0.808,2.019 0.727,0.985 0.91,1.078 1.379,1.606 0.473,0.527 0.602,0.601 1.07,1.031 0.469,0.434 0.418,0.434 1.016,0.937 0.602,0.504 0.731,0.575 1.176,0.766 0.441,0.191 1.098,0.457 1.328,0.527 0.234,0.075 0.887,0.215 0.887,0.215 l 0.84,0.246 -0.5,10.024 -6.86,-4.317 c 0,0 0.496,-1.031 0.524,-1.343 0.023,-0.313 0.05,-0.313 0.023,-0.817 -0.023,-0.504 0.051,-0.504 -0.074,-0.84 -0.133,-0.332 -0.028,-0.644 -0.656,-1.129 -0.622,-0.476 -0.961,-0.718 -1.25,-0.765 -0.286,-0.047 -0.676,-0.238 -1.098,-0.238 -0.414,0 -0.91,0 -1.379,0.07 -0.469,0.074 -0.652,-0.024 -1.121,0.144 -0.469,0.168 -0.859,0.192 -1.227,0.481 -0.363,0.285 -0.574,0.453 -0.648,0.765 -0.082,0.313 -0.238,0.649 -0.34,1.129 -0.105,0.481 -0.183,0.719 -0.183,1.055 0,0.336 0.101,0.863 0.101,0.863 0,0 0.551,1.223 0.758,1.442 0.211,0.215 0.969,1.031 1.07,1.101 0.106,0.075 1.176,0.481 1.176,0.481 0,0 0.621,-0.024 0.91,-0.047 0.285,-0.024 1.07,-0.074 1.305,-0.219 0.234,-0.14 0.363,-0.215 0.574,-0.355 0.207,-0.145 1.121,-0.961 1.121,-0.961 l 7.012,5.133 0.262,21.453 -12.305,-8.449 1.875,-3.075 c 0,0 0.258,-1.101 0.258,-1.675 0,-0.579 0,-0.864 -0.051,-1.153 -0.051,-0.285 0,-0.43 -0.258,-1.055 -0.262,-0.625 -0.68,-1.246 -0.941,-1.679 -0.258,-0.43 -0.207,-0.574 -0.782,-1.199 -0.574,-0.625 -0.832,-0.864 -1.511,-1.582 -0.68,-0.723 -2.297,-1.969 -2.297,-1.969 0,0 -0.258,-0.192 -0.887,-0.239 -0.625,-0.046 -1.769,-0.097 -2.187,-0.097 -0.418,0 1.25,-0.719 -1.618,0.242 -2.871,0.957 -4.121,1.484 -4.121,1.484 l -0.73,0.336 -1.406,0.961 -0.942,1.535 c 0,0 -0.676,1.391 -0.73,1.582 -0.051,0.192 -0.153,1.153 -0.207,1.536 -0.051,0.382 -0.262,1.968 -0.262,1.968 0,0 0.051,0.911 0.156,1.102 0.106,0.191 0.313,1.394 0.574,1.68 0.262,0.289 0.676,1.156 0.676,1.156 l 0.992,1.195 c 0,0 0.68,0.528 1.254,0.867 0.575,0.336 0.883,0.621 1.356,0.766 0.469,0.145 1.461,0.527 1.875,0.527 0.422,0 0.992,0.145 1.566,0.192 0.574,0.047 0.887,0.047 1.668,0.094 0.781,0.05 1.567,0.097 2.141,-0.094 0.574,-0.192 0.988,-0.43 1.512,-0.574 0.523,-0.145 0.937,-0.336 1.304,-0.575 0.363,-0.242 1.043,-0.773 1.043,-0.773 l 0.496,-0.453 6.75,6 5.242,5.492 0.106,9.789 -0.207,2.137 c 0,0 -0.156,2.16 -0.156,2.277 0,0.121 -0.785,12.164 -0.785,12.164 l -4.692,-3.406 c 0,0 -0.863,-0.598 -1.07,-0.77 -0.207,-0.168 -0.391,-0.285 -0.414,-0.429 -0.032,-0.145 -0.16,-0.551 -0.16,-0.887 0,-0.336 0,-0.336 -0.024,-0.625 -0.027,-0.289 0.129,-0.289 -0.105,-0.695 -0.235,-0.411 -0.289,-0.551 -0.442,-0.719 -0.16,-0.168 -0.289,-0.336 -0.371,-0.504 -0.074,-0.168 -0.074,-0.504 -0.101,-0.676 -0.028,-0.168 0.183,-0.644 0.183,-0.765 0,-0.122 0.051,-0.336 0.129,-0.575 0.078,-0.238 0.285,-0.55 0.469,-0.648 0.183,-0.098 0.472,-0.219 0.836,-0.359 0.367,-0.145 0.832,-0.313 1.097,-0.458 0.258,-0.144 0.497,-0.214 0.649,-0.359 0.156,-0.144 0.469,-0.312 0.703,-0.598 0.238,-0.289 0.496,-0.605 0.574,-0.796 0.082,-0.192 0.106,-0.286 0.106,-0.286 0,0 0.418,-0.671 0.418,-1.054 0,-0.383 0.078,-0.77 0.05,-1.227 -0.027,-0.453 -0.078,-1.101 -0.128,-1.34 -0.051,-0.242 -0.106,-0.554 -0.313,-0.914 -0.211,-0.359 -0.391,-0.765 -0.625,-0.98 -0.238,-0.215 -0.496,-0.457 -0.836,-0.606 -0.34,-0.144 -0.441,-0.238 -0.937,-0.382 -0.5,-0.145 -0.602,-0.239 -1.305,-0.239 -0.707,0 -1.41,-0.047 -1.723,-0.047 -0.312,0 -0.883,-0.05 -1.222,0 -0.34,0.047 -0.758,0.071 -1.149,0.239 -0.394,0.168 -0.785,0.261 -1.176,0.453 -0.39,0.199 -0.703,0.293 -0.914,0.554 -0.207,0.266 -0.547,1.032 -0.597,1.176 -0.055,0.145 -0.262,0.481 -0.289,0.867 -0.024,0.383 -0.051,1.004 0.054,1.27 0.106,0.262 0.285,0.84 0.575,1.273 0.285,0.43 0.832,1.196 1.199,1.532 0.363,0.34 1.093,0.937 1.433,1.152 0.34,0.219 0.754,0.406 0.914,0.43 0.157,0.027 0.34,5.593 0.34,5.593 l -8.476,-7.25 1.187,-2.109 c 0,0 1.215,-2.578 1.324,-2.812 0.114,-0.243 1.149,-2.618 1.149,-3.024 0,-0.406 -0.149,-3.016 -0.262,-3.39 -0.109,-0.376 -0.625,-0.852 -0.66,-1.528 -0.043,-0.676 -0.297,-0.715 -0.887,-1.562 -0.594,-0.848 -1.437,-1.969 -1.808,-2.274 -0.368,-0.304 -1.141,-0.918 -1.77,-1.258 -0.625,-0.336 -1.215,-0.609 -1.66,-0.843 -0.441,-0.239 -1.66,-0.649 -1.992,-0.817 -0.332,-0.172 -1.071,-0.375 -1.399,-0.441 -0.332,-0.067 -1,-0.168 -1.402,-0.168 -0.406,0 -0.816,0 -1.254,0 -0.441,0 -1.363,0 -1.844,0.031 -0.48,0.035 -1.957,0.238 -2.14,0.274 -0.184,0.035 -1.918,0.238 -1.918,0.238 l -1.696,0.609 -1.699,1.02 -1.433,0.914 -1.145,1.39 -0.996,1.223 -1.07,1.395 -0.922,1.457 -0.629,1.558 -0.035,1.055 c 0,0 -0.075,1.086 0,1.223 0.074,0.132 0.445,1.929 0.445,1.929 l 0.59,1.223 0.625,1.355 1.254,1.938 c 0,0 1.551,1.152 1.695,1.289 0.149,0.137 1.473,1.254 1.883,1.523 0.406,0.274 1.289,0.786 1.695,0.954 0.406,0.167 1.071,0.472 1.586,0.578 0.516,0.097 2.692,0.504 2.949,0.504 0.258,0 2.329,0.136 2.329,0.136 l 1.617,-0.203 c 0,0 2.175,-0.34 2.437,-0.406 0.258,-0.07 1.438,-0.203 1.696,-0.371 0.257,-0.172 2.175,-1.223 2.175,-1.223 l 0.739,-0.406 15.82,15.098 -2.399,3.765 h -3.722 c 0,0 -0.59,-0.031 -1.106,0.067 -0.519,0.105 -1.843,0.242 -2.433,0.41 -0.594,0.168 -1.219,0.101 -1.735,0.508 -0.519,0.41 -1.07,0.507 -1.406,0.781 -0.328,0.269 -0.551,0.441 -0.773,0.847 -0.219,0.407 -0.848,0.817 -0.922,1.118 -0.071,0.308 0.074,3.664 0.074,3.664 0,0 1.184,1.258 1.438,1.531 0.261,0.269 0.703,0.844 1.218,1.117 0.516,0.27 1.219,0.473 1.66,0.512 0.446,0.031 0.996,0 1.622,0.031 0.628,0.035 1.546,0.067 1.917,0.035 0.368,-0.035 1.071,-0.172 1.333,-0.203 0.253,-0.035 1.25,-0.203 1.546,-0.406 0.293,-0.203 1.18,-0.68 1.18,-0.68 0,0 0.625,-0.816 0.738,-1.054 0.11,-0.235 0.258,-2.133 0.258,-2.133 0,0 0.149,-0.582 0.184,-1.125 0.035,-0.543 -0.074,-2.711 -0.074,-2.848 0,-0.137 0.109,-0.883 0.109,-0.883 l 2.582,-2.238 0.113,14.453 -1.441,3.391 -0.035,9.742 -19.731,-14.387 2.434,-4.476 c 0,0 0.258,-3.297 0.297,-3.5 0.035,-0.203 -0.039,-2.407 -0.114,-2.746 -0.074,-0.34 -0.441,-3.223 -0.515,-3.457 -0.074,-0.243 -0.918,-2.075 -1.067,-2.309 -0.148,-0.238 -1.148,-1.902 -1.367,-2.207 -0.223,-0.309 -1.695,-1.867 -1.918,-2.035 -0.219,-0.172 -0.773,-0.512 -1.179,-0.715 -0.407,-0.203 -2.286,-1.223 -2.618,-1.324 -0.336,-0.102 -1.476,-0.539 -1.882,-0.676 -0.403,-0.137 -1.918,-0.309 -2.102,-0.309 -0.184,0 -2.027,-0.031 -2.25,-0.031 -0.219,0 -2.246,0.102 -2.543,0.137 -0.297,0.031 -2.105,0.168 -2.66,0.34 -0.551,0.164 -1.879,0.406 -2.43,0.574 -0.555,0.172 -1.769,0.512 -2.031,0.676 -0.254,0.171 -0.922,0.41 -1.731,1.019 -0.812,0.61 -2.472,1.395 -2.621,1.664 -0.144,0.27 -0.773,0.781 -1.105,1.258 -0.332,0.477 -0.992,0.98 -1.141,1.426 -0.148,0.437 -0.48,1.355 -0.519,1.625 -0.035,0.273 -0.403,1.426 -0.442,1.562 -0.035,0.137 -0.515,1.391 -0.551,1.696 -0.035,0.304 -0.332,1.121 -0.296,1.324 0.035,0.203 -0.036,1.324 -0.036,1.324 0,0 0.11,2.27 0.149,2.68 0.035,0.406 0.516,2.035 0.516,2.035 l 1.511,2.848 c 0,0 3.02,2.714 3.168,2.82 0.149,0.098 2.473,1.457 2.766,1.59 0.297,0.136 2.14,0.882 2.472,1.019 0.333,0.133 2.84,0.852 3.098,0.883 0.258,0.035 1.883,0.203 2.137,0.203 0.262,0 1.402,0.102 1.992,0.067 0.59,-0.032 3.32,-0.301 3.691,-0.473 0.372,-0.168 3.54,-0.914 3.832,-0.984 0.297,-0.067 1.149,-0.204 1.29,-0.27 0.148,-0.07 1.218,-0.609 1.441,-0.715 0.223,-0.101 1.473,-0.746 1.473,-0.746 l 6.418,7.875 -2.434,3.055 -5.531,0.066 c 0,0 -0.664,-0.066 -0.813,-0.035 -0.144,0.035 -0.957,0.066 -1.511,0.27 -0.551,0.203 -1.106,0.273 -1.399,0.781 -0.297,0.508 -0.555,0.883 -0.738,1.187 -0.188,0.305 -0.883,2.172 -0.883,2.41 0,0.235 -0.078,2 -0.078,2.309 0,0.301 0.332,1.695 0.48,1.863 0.149,0.172 0.481,0.61 0.887,0.852 0.406,0.234 1.07,0.437 1.398,0.504 0.333,0.07 1.735,0.308 1.883,0.308 0.149,0 2.285,0 2.285,0 0,0 2.028,-0.476 2.176,-0.543 0.149,-0.066 0.739,-0.406 0.961,-0.578 0.223,-0.168 0.957,-0.781 1.215,-0.984 0.258,-0.203 1.145,-1.219 1.219,-1.422 0.074,-0.207 0.293,-1.055 0.371,-1.258 0.07,-0.203 0.441,-1.594 0.402,-1.797 -0.035,-0.203 -0.074,-0.781 -0.148,-0.918 -0.071,-0.136 -0.586,-1.183 -0.586,-1.183 l -0.965,-1.156 2.73,-2.614 12.762,10.719 0.332,26.738 z" /></g></g></svg>