<?xml version="1.0" encoding="UTF-8" standalone="no"?>
<svg
        xmlns:dc="http://purl.org/dc/elements/1.1/"
        xmlns:cc="http://creativecommons.org/ns#"
        xmlns:rdf="http://www.w3.org/1999/02/22-rdf-syntax-ns#"
        xmlns="http://www.w3.org/2000/svg"
        version="1.1"
        id="svg2"
        xml:space="preserve"
        width="220.25999"
        height="254.33618"
        viewBox="0 0 220.25999 254.33618"><metadata
     id="metadata8"><rdf:RDF><cc:Work
         rdf:about=""><dc:format>image/svg+xml</dc:format><dc:type
        rdf:resource="http://purl.org/dc/dcmitype/StillImage"/><dc:title></dc:title></cc:Work></rdf:RDF></metadata>
    <defs
            id="defs6"/>
    <g
            id="g10"
            transform="matrix(1.3333333,0,0,1.3333333,0,5.0250711e-6)"><g
       id="g12"><g
         id="g14"><path
           d="M 163.32,141.977 82.598,188.586 1.875,141.977 V 48.766 L 82.598,2.164 163.32,48.766 Z"
           style="fill:#35a942;fill-opacity:1;fill-rule:nonzero;stroke:#505050;stroke-width:2.25000006;stroke-linecap:butt;stroke-linejoin:miter;stroke-miterlimit:4;stroke-dasharray:none;stroke-opacity:1"
           id="path16" /></g><path
         d="m 76.914,171.844 12.535,-0.309 -0.144,-16.863 15.23,-14.551 4.723,-5.43 c 0,0 0.551,0.438 1.105,0.813 0.555,0.371 1.914,0.574 2.469,0.816 0.555,0.235 1.106,0.438 1.734,0.711 0.625,0.27 0.922,0.27 2.102,0.711 1.184,0.442 2.547,0.848 3.578,0.711 1.031,-0.133 4.277,-0.133 5.313,-0.269 1.027,-0.137 1.765,-0.27 2.617,-0.508 0.847,-0.238 2.176,-0.442 2.726,-0.949 0.555,-0.512 0.668,-0.68 1.512,-1.223 0.852,-0.543 2.215,-1.051 3.176,-2.004 0.957,-0.949 1.953,-1.559 2.582,-2.406 0.625,-0.848 1.547,-2.039 1.879,-3.059 0.332,-1.015 0.773,-2 0.773,-3.254 0,-1.254 -0.183,-3.937 -0.222,-4.41 -0.036,-0.476 -1.403,-3.969 -1.586,-4.242 -0.184,-0.27 -1.18,-1.219 -1.766,-2.102 -0.594,-0.882 -0.777,-1.359 -1.59,-1.968 -0.812,-0.61 -1.289,-1.153 -3.246,-1.731 -1.953,-0.574 -3.906,-1.019 -4.941,-1.254 -1.035,-0.238 -1.993,-0.41 -2.801,-0.543 -0.813,-0.136 -1.625,-0.273 -2.695,-0.375 -1.067,-0.101 -2.325,-0.203 -3.317,-0.136 -0.996,0.066 -1.18,-0.032 -2.547,0.406 -1.359,0.445 -2.281,0.746 -3.281,1.156 -0.992,0.406 -1.992,0.746 -2.984,1.356 -1,0.609 -2.028,0.812 -2.731,1.765 -0.703,0.949 -1.328,1.391 -1.625,2.41 -0.293,1.016 -0.48,1.864 -0.625,2.543 -0.148,0.676 -0.406,1.055 -0.515,1.934 -0.114,0.883 -0.407,1.289 -0.184,2.476 0.219,1.188 0.219,1.629 0.477,2.75 0.261,1.118 0.261,1.086 0.41,2.305 0.144,1.223 0.105,1.594 0.367,2.715 0.258,1.121 0.258,1.562 0.555,2.105 0.289,0.543 0.625,0.95 0.734,1.055 0.109,0.098 0.848,0.746 0.848,0.746 l -5.497,5.223 -5.308,2.137 -0.039,-5.567 c 0,0 0.297,-0.133 0.441,-0.234 0.149,-0.106 0.555,-0.27 0.926,-0.34 0.371,-0.066 0.551,0.101 1.106,-0.406 0.55,-0.512 0.664,-0.512 1.066,-0.918 0.41,-0.407 0.668,-0.883 0.887,-1.223 0.222,-0.336 0.371,-0.301 0.445,-1.016 0.074,-0.71 0.109,-0.988 0.109,-1.664 0,-0.679 0.075,-0.914 -0.148,-1.492 -0.223,-0.578 -0.223,-1.086 -0.738,-1.527 -0.516,-0.442 -0.844,-0.781 -1.434,-0.985 -0.594,-0.203 -0.816,-0.304 -1.625,-0.406 -0.812,-0.101 -1.328,-0.168 -2.027,-0.101 -0.703,0.066 -0.887,0.031 -1.625,0.234 -0.735,0.203 -1.215,0.34 -1.805,0.68 -0.59,0.34 -0.961,0.308 -1.441,0.851 -0.477,0.543 -0.774,0.34 -0.957,1.289 -0.184,0.95 -0.516,1.457 -0.368,2.207 0.149,0.746 -0.035,0.746 0.403,1.629 0.445,0.883 0.187,0.883 1.109,1.66 0.922,0.782 1.402,1.086 2.027,1.461 0.629,0.371 0.848,0.473 1.254,0.61 0.407,0.136 1.364,0.644 1.364,0.644 l -1.547,7.5 -5.864,4.442 -0.187,-27.821 5.976,-6.652 9.438,-9.465 c 0,0 1.555,0.238 1.773,0.34 0.219,0.102 0.332,0.34 0.848,0.512 0.516,0.164 0.629,0.234 1.66,0.336 1.031,0.101 1.293,0.07 1.989,0.136 0.703,0.067 1.253,0.137 2.027,0.137 0.777,0 1.441,-0.07 2.324,-0.203 0.887,-0.137 1.145,-0.07 2.141,-0.34 0.996,-0.273 1.625,-0.406 2.433,-0.746 0.813,-0.34 1.293,-0.476 1.696,-0.715 0.41,-0.238 0.851,-0.543 1.441,-0.988 0.59,-0.438 1.551,-1.117 1.918,-1.523 0.367,-0.407 0.922,-0.883 1.328,-1.665 0.402,-0.777 0.922,-1.695 1.07,-2.136 0.145,-0.442 0.403,-1.289 0.438,-1.461 0.043,-0.168 0.113,-4.137 0.113,-4.442 0,-0.308 0.184,-0.882 0,-1.629 -0.183,-0.746 -0.406,-1.39 -0.887,-2.136 -0.48,-0.75 -0.734,-1.36 -1.769,-2.274 -1.031,-0.918 -1.77,-1.492 -2.652,-1.867 -0.887,-0.371 -1.59,-0.68 -2.582,-1.019 -1,-0.336 -1.735,-0.438 -2.696,-0.61 -0.957,-0.168 -1.472,-0.234 -2.726,-0.234 -1.254,0 -2.102,0 -3.539,0.269 -1.442,0.274 -3.028,0.614 -3.582,0.848 -0.551,0.238 -1.106,0.34 -1.766,0.781 -0.664,0.442 -1.254,0.68 -2.141,1.356 -0.886,0.679 -1.695,1.359 -2.027,1.797 -0.332,0.445 -0.629,0.746 -0.773,1.425 -0.149,0.68 -0.411,1.598 -0.411,2.141 0,0.543 -0.035,1.523 0.04,2.102 0.074,0.574 0.144,2.035 0.187,2.273 0.035,0.238 0.219,1.355 0.328,1.695 0.113,0.34 0.184,1.289 0.367,1.832 0.184,0.543 0.778,1.766 0.852,2.344 0.07,0.574 0.883,1.254 0.883,1.254 l 0.703,1.086 -6.528,5.227 -0.886,-2.614 -0.371,-0.777 c 0,0 1.144,-1.192 1.625,-1.801 0.48,-0.613 0.554,-0.375 0.886,-1.019 0.332,-0.645 0.368,-0.848 0.664,-1.598 0.293,-0.746 0.442,-0.949 0.407,-1.32 -0.043,-0.375 -0.043,-0.645 -0.223,-0.813 -0.184,-0.172 -0.48,-0.445 -0.777,-0.578 -0.293,-0.137 -0.551,-0.34 -0.993,-0.406 -0.445,-0.071 -1.144,-0.207 -1.476,-0.207 -0.332,0 -0.699,-0.032 -1.07,-0.032 -0.368,0 -0.7,0 -1.18,0.137 -0.481,0.137 -0.625,0.102 -1.145,0.371 -0.511,0.27 -0.66,0.375 -1.031,0.715 -0.367,0.34 -0.551,0.406 -0.734,0.813 -0.192,0.41 -0.262,0.41 -0.332,0.914 -0.078,0.511 -0.114,0.543 -0.078,0.988 0.039,0.437 0.078,0.711 0.226,0.98 0.141,0.27 0.141,0.309 0.403,0.68 0.257,0.375 0.183,0.27 0.589,0.645 0.407,0.375 0.848,0.679 0.848,0.679 l 0.738,0.34 0.59,0.442 -0.699,5.527 -4.981,4.449 -0.957,-26.566 10.915,-10.012 c 0,0 0.921,0.27 1.183,0.406 0.254,0.137 0.734,0.309 1.176,0.477 0.441,0.172 0.996,0.305 1.551,0.375 0.554,0.066 1.918,0.164 2.914,-0.039 0.996,-0.203 1.582,-0.203 2.136,-0.336 0.555,-0.137 4.02,-1.668 4.02,-1.668 0,0 0.078,0.105 0.445,-0.438 0.367,-0.543 0.809,-0.984 1.215,-1.527 0.41,-0.543 0.887,-1.02 1.035,-1.426 0.149,-0.406 0.403,-0.746 0.516,-1.594 0.109,-0.847 0.183,-1.324 0.07,-2.273 -0.105,-0.949 0,-1.562 -0.219,-2.137 -0.218,-0.578 -0.738,-1.968 -1.363,-2.613 -0.629,-0.641 -0.742,-1.086 -1.367,-1.32 -0.629,-0.242 -1.324,-0.649 -2.578,-0.949 -1.258,-0.309 -2.512,-0.411 -3.356,-0.411 -0.851,0 -1.476,-0.132 -2.175,0 -0.703,0.137 -1.036,0.137 -1.922,0.508 -0.887,0.375 -1.215,0.477 -1.809,0.813 -0.586,0.34 -0.699,0.172 -1.289,0.75 -0.59,0.578 -0.625,0.441 -1.398,1.324 -0.778,0.883 -1.106,1.184 -1.477,2.101 -0.371,0.915 -0.48,0.782 -0.516,1.969 -0.035,1.188 -0.183,1.188 -0.035,1.969 0.145,0.777 0.219,1.117 0.367,1.492 0.145,0.371 0.329,0.981 0.59,1.32 0.258,0.34 0.477,0.782 0.59,0.918 0.113,0.137 1.141,1.524 1.141,1.524 l -11.246,6.824 -0.332,-17.914 7.89,-5.156 6.899,-5.836 c 0,0 0.922,0.203 1.07,0.34 0.145,0.136 0.59,0.34 0.957,0.437 0.371,0.106 0.625,0.172 1.07,0.238 0.442,0.071 1.254,0.274 2.028,0.137 0.773,-0.137 1.625,-0.308 2.031,-0.406 0.402,-0.106 0.809,-0.106 1.402,-0.406 0.586,-0.309 1.067,-0.34 1.469,-0.785 0.41,-0.438 0.668,-0.61 0.852,-0.95 0.183,-0.34 0.332,-0.609 0.48,-1.117 0.149,-0.512 0.367,-0.984 0.332,-1.391 -0.039,-0.41 0.035,-0.582 -0.148,-1.124 -0.184,-0.543 -0.446,-1.219 -0.625,-1.524 -0.188,-0.309 -0.149,-0.512 -0.594,-0.949 -0.441,-0.442 -0.59,-0.949 -1.215,-1.086 -0.629,-0.137 -0.777,-0.274 -2.101,-0.406 -1.329,-0.137 -1.809,-0.274 -2.582,-0.106 -0.774,0.172 -0.704,0.035 -1.512,0.34 -0.813,0.309 -1.145,0.27 -1.957,0.715 -0.813,0.437 -1.176,0.476 -1.731,1.086 -0.558,0.609 -0.812,0.949 -0.812,0.949 l -0.742,1.695 c 0,0 0.011,0.207 0.05,0.383 0.039,0.18 0.055,0.36 0.161,0.617 0.105,0.25 0.179,0.395 0.285,0.598 0.105,0.203 0.211,0.348 0.285,0.469 0.082,0.117 0.391,0.586 0.484,0.668 0.094,0.086 0.574,0.808 0.574,0.808 L 84.449,64.41 84.066,41.754 c 0,0 0.723,-0.352 0.879,-0.352 0.16,0 1.098,0.121 1.383,-0.07 0.285,-0.191 0.391,-0.219 0.887,-0.437 0.496,-0.215 1.199,-0.43 1.773,-0.887 0.574,-0.453 1.094,-0.957 1.461,-1.297 0.363,-0.336 0.731,-0.551 1.094,-0.981 0.367,-0.429 0.758,-0.886 0.992,-1.343 0.231,-0.457 0.547,-1.078 0.703,-1.512 0.157,-0.43 0.313,-0.887 0.313,-1.391 0,-0.504 -0.055,-1.347 -0.055,-1.347 0,0 -0.023,-2.207 -0.18,-2.567 -0.156,-0.355 -0.054,-0.453 -0.574,-1.218 -0.523,-0.77 -0.73,-1.204 -1.148,-1.586 -0.414,-0.383 -0.571,-0.528 -1.227,-0.911 -0.648,-0.386 -1.433,-0.675 -1.953,-0.867 -0.519,-0.191 -1.043,-0.453 -1.488,-0.55 -0.442,-0.094 -1.039,-0.215 -1.746,-0.309 -0.703,-0.098 -1.434,-0.168 -2.141,-0.168 -0.703,0 -0.961,-0.074 -1.824,0.168 -0.86,0.238 -1.512,0.332 -2.449,0.766 -0.938,0.429 -1.328,0.335 -1.985,0.816 -0.648,0.48 -0.937,0.625 -1.508,1.176 -0.574,0.551 -0.656,0.668 -0.964,1.031 -0.317,0.359 -0.371,0.074 -0.707,1.129 -0.34,1.055 -0.446,1.437 -0.446,1.918 0,0.48 0,0.457 0.082,1.195 0.074,0.75 0,0.82 0.235,1.633 0.23,0.82 0.078,1.035 0.808,2.019 0.727,0.985 0.91,1.079 1.379,1.606 0.473,0.527 0.602,0.602 1.07,1.031 0.469,0.434 0.418,0.434 1.016,0.938 0.602,0.504 0.731,0.574 1.176,0.765 0.441,0.192 1.098,0.457 1.328,0.528 0.234,0.074 0.887,0.215 0.887,0.215 l 0.84,0.246 -0.5,10.023 -6.86,-4.316 c 0,0 0.496,-1.032 0.524,-1.344 0.023,-0.313 0.05,-0.313 0.023,-0.816 -0.023,-0.504 0.051,-0.504 -0.074,-0.84 -0.133,-0.332 -0.028,-0.645 -0.656,-1.129 -0.622,-0.477 -0.961,-0.719 -1.25,-0.766 -0.286,-0.047 -0.676,-0.238 -1.098,-0.238 -0.414,0 -0.91,0 -1.379,0.07 -0.469,0.074 -0.652,-0.023 -1.121,0.145 -0.469,0.168 -0.859,0.191 -1.227,0.48 -0.363,0.285 -0.574,0.453 -0.648,0.766 -0.082,0.312 -0.238,0.648 -0.34,1.129 -0.105,0.48 -0.183,0.718 -0.183,1.054 0,0.336 0.101,0.864 0.101,0.864 0,0 0.551,1.222 0.758,1.441 0.211,0.215 0.969,1.031 1.07,1.102 0.106,0.074 1.176,0.48 1.176,0.48 0,0 0.621,-0.023 0.91,-0.047 0.285,-0.023 1.07,-0.074 1.305,-0.219 0.234,-0.14 0.363,-0.214 0.574,-0.355 0.207,-0.145 1.121,-0.961 1.121,-0.961 l 7.012,5.133 0.262,21.453 -12.305,-8.449 1.875,-3.074 c 0,0 0.258,-1.102 0.258,-1.676 0,-0.578 0,-0.863 -0.051,-1.153 -0.051,-0.285 0,-0.429 -0.258,-1.054 -0.262,-0.625 -0.68,-1.246 -0.941,-1.68 -0.258,-0.43 -0.207,-0.574 -0.782,-1.199 -0.574,-0.625 -0.832,-0.863 -1.511,-1.582 -0.68,-0.723 -2.297,-1.969 -2.297,-1.969 0,0 -0.258,-0.191 -0.887,-0.238 -0.625,-0.047 -1.769,-0.098 -2.187,-0.098 -0.418,0 1.25,-0.719 -1.618,0.242 -2.871,0.957 -4.121,1.485 -4.121,1.485 l -0.73,0.336 -1.406,0.961 -0.942,1.535 c 0,0 -0.676,1.39 -0.73,1.582 -0.051,0.191 -0.153,1.152 -0.207,1.535 -0.051,0.383 -0.262,1.969 -0.262,1.969 0,0 0.051,0.91 0.156,1.101 0.106,0.192 0.313,1.395 0.574,1.68 0.262,0.289 0.676,1.156 0.676,1.156 l 0.992,1.195 c 0,0 0.68,0.528 1.254,0.868 0.575,0.336 0.883,0.621 1.356,0.765 0.469,0.145 1.461,0.528 1.875,0.528 0.422,0 0.992,0.144 1.566,0.191 0.574,0.047 0.887,0.047 1.668,0.094 0.781,0.051 1.567,0.097 2.141,-0.094 0.574,-0.191 0.988,-0.43 1.512,-0.574 0.523,-0.145 0.937,-0.336 1.304,-0.574 0.363,-0.243 1.043,-0.774 1.043,-0.774 l 0.496,-0.453 6.75,6 5.242,5.492 0.106,9.789 -0.207,2.137 c 0,0 -0.156,2.16 -0.156,2.277 0,0.121 -0.785,12.164 -0.785,12.164 l -4.692,-3.406 c 0,0 -0.863,-0.597 -1.07,-0.769 -0.207,-0.168 -0.391,-0.286 -0.414,-0.43 -0.032,-0.145 -0.16,-0.551 -0.16,-0.887 0,-0.336 0,-0.336 -0.024,-0.625 -0.027,-0.289 0.129,-0.289 -0.105,-0.695 -0.235,-0.41 -0.289,-0.551 -0.442,-0.719 -0.16,-0.168 -0.289,-0.336 -0.371,-0.504 -0.074,-0.168 -0.074,-0.504 -0.101,-0.676 -0.028,-0.168 0.183,-0.644 0.183,-0.765 0,-0.121 0.051,-0.336 0.129,-0.574 0.078,-0.239 0.285,-0.551 0.469,-0.649 0.183,-0.097 0.472,-0.219 0.836,-0.359 0.367,-0.145 0.832,-0.313 1.097,-0.457 0.258,-0.145 0.497,-0.215 0.649,-0.36 0.156,-0.144 0.469,-0.312 0.703,-0.597 0.238,-0.289 0.496,-0.606 0.574,-0.797 0.082,-0.192 0.106,-0.285 0.106,-0.285 0,0 0.418,-0.672 0.418,-1.055 0,-0.383 0.078,-0.77 0.05,-1.227 -0.027,-0.453 -0.078,-1.101 -0.128,-1.339 -0.051,-0.243 -0.106,-0.555 -0.313,-0.914 -0.211,-0.36 -0.391,-0.766 -0.625,-0.981 -0.238,-0.215 -0.496,-0.457 -0.836,-0.605 -0.34,-0.145 -0.441,-0.239 -0.937,-0.383 -0.5,-0.145 -0.602,-0.238 -1.305,-0.238 -0.707,0 -1.41,-0.047 -1.723,-0.047 -0.312,0 -0.883,-0.051 -1.222,0 -0.34,0.047 -0.758,0.07 -1.149,0.238 -0.394,0.168 -0.785,0.262 -1.176,0.453 -0.39,0.199 -0.703,0.293 -0.914,0.555 -0.207,0.265 -0.547,1.031 -0.597,1.176 -0.055,0.144 -0.262,0.48 -0.289,0.867 -0.024,0.383 -0.051,1.004 0.054,1.269 0.106,0.262 0.285,0.84 0.575,1.274 0.285,0.429 0.832,1.195 1.199,1.531 0.363,0.34 1.093,0.937 1.433,1.152 0.34,0.219 0.754,0.407 0.914,0.43 0.157,0.027 0.34,5.594 0.34,5.594 l -8.476,-7.25 1.187,-2.11 c 0,0 1.215,-2.578 1.324,-2.812 0.114,-0.242 1.149,-2.617 1.149,-3.024 0,-0.406 -0.149,-3.015 -0.262,-3.39 -0.109,-0.375 -0.625,-0.852 -0.66,-1.528 -0.043,-0.675 -0.297,-0.714 -0.887,-1.562 -0.594,-0.848 -1.437,-1.969 -1.808,-2.273 -0.368,-0.305 -1.141,-0.918 -1.77,-1.258 -0.625,-0.336 -1.215,-0.61 -1.66,-0.844 -0.441,-0.238 -1.66,-0.648 -1.992,-0.816 -0.332,-0.172 -1.071,-0.375 -1.399,-0.442 -0.332,-0.066 -1,-0.168 -1.402,-0.168 -0.406,0 -0.816,0 -1.254,0 -0.441,0 -1.363,0 -1.844,0.031 -0.48,0.036 -1.957,0.239 -2.14,0.274 -0.184,0.035 -1.918,0.238 -1.918,0.238 l -1.696,0.609 -1.699,1.02 -1.433,0.914 -1.145,1.391 -0.996,1.222 -1.07,1.395 -0.922,1.457 -0.629,1.559 -0.035,1.054 c 0,0 -0.075,1.086 0,1.223 0.074,0.133 0.445,1.93 0.445,1.93 l 0.59,1.222 0.625,1.356 1.254,1.937 c 0,0 1.551,1.153 1.695,1.289 0.149,0.137 1.473,1.254 1.883,1.524 0.406,0.273 1.289,0.785 1.695,0.953 0.406,0.168 1.071,0.472 1.586,0.578 0.516,0.098 2.692,0.504 2.949,0.504 0.258,0 2.329,0.137 2.329,0.137 l 1.617,-0.204 c 0,0 2.175,-0.339 2.437,-0.406 0.258,-0.07 1.438,-0.203 1.696,-0.371 0.257,-0.172 2.175,-1.223 2.175,-1.223 l 0.739,-0.406 15.82,15.098 -2.399,3.765 h -3.722 c 0,0 -0.59,-0.031 -1.106,0.067 -0.519,0.105 -1.843,0.242 -2.433,0.41 -0.594,0.168 -1.219,0.102 -1.735,0.508 -0.519,0.41 -1.07,0.508 -1.406,0.781 -0.328,0.27 -0.551,0.442 -0.773,0.848 -0.219,0.406 -0.848,0.816 -0.922,1.117 -0.071,0.309 0.074,3.664 0.074,3.664 0,0 1.184,1.258 1.438,1.531 0.261,0.27 0.703,0.844 1.218,1.117 0.516,0.27 1.219,0.473 1.66,0.512 0.446,0.031 0.996,0 1.622,0.031 0.628,0.036 1.546,0.067 1.917,0.036 0.368,-0.036 1.071,-0.172 1.333,-0.204 0.253,-0.035 1.25,-0.203 1.546,-0.406 0.293,-0.203 1.18,-0.68 1.18,-0.68 0,0 0.625,-0.816 0.738,-1.054 0.11,-0.235 0.258,-2.133 0.258,-2.133 0,0 0.149,-0.582 0.184,-1.125 0.035,-0.543 -0.074,-2.711 -0.074,-2.848 0,-0.136 0.109,-0.882 0.109,-0.882 l 2.582,-2.239 0.113,14.453 -1.441,3.391 -0.035,9.742 -19.731,-14.387 2.434,-4.476 c 0,0 0.258,-3.297 0.297,-3.5 0.035,-0.203 -0.039,-2.406 -0.114,-2.746 -0.074,-0.34 -0.441,-3.223 -0.515,-3.457 -0.074,-0.242 -0.918,-2.074 -1.067,-2.309 -0.148,-0.238 -1.148,-1.902 -1.367,-2.207 -0.223,-0.308 -1.695,-1.867 -1.918,-2.035 -0.219,-0.172 -0.773,-0.512 -1.179,-0.715 -0.407,-0.203 -2.286,-1.223 -2.618,-1.324 -0.336,-0.102 -1.476,-0.539 -1.882,-0.676 -0.403,-0.137 -1.918,-0.308 -2.102,-0.308 -0.184,0 -2.027,-0.032 -2.25,-0.032 -0.219,0 -2.246,0.102 -2.543,0.137 -0.297,0.031 -2.105,0.168 -2.66,0.34 -0.551,0.164 -1.879,0.406 -2.43,0.574 -0.555,0.172 -1.769,0.512 -2.031,0.676 -0.254,0.172 -0.922,0.41 -1.731,1.019 -0.812,0.61 -2.472,1.395 -2.621,1.664 -0.144,0.27 -0.773,0.782 -1.105,1.258 -0.332,0.477 -0.992,0.981 -1.141,1.426 -0.148,0.438 -0.48,1.356 -0.519,1.625 -0.035,0.274 -0.403,1.426 -0.442,1.563 -0.035,0.136 -0.515,1.39 -0.551,1.695 -0.035,0.305 -0.332,1.121 -0.296,1.324 0.035,0.203 -0.036,1.324 -0.036,1.324 0,0 0.11,2.27 0.149,2.68 0.035,0.406 0.516,2.035 0.516,2.035 l 1.511,2.848 c 0,0 3.02,2.715 3.168,2.82 0.149,0.098 2.473,1.457 2.766,1.59 0.297,0.137 2.14,0.883 2.472,1.019 0.333,0.133 2.84,0.852 3.098,0.883 0.258,0.035 1.883,0.203 2.137,0.203 0.262,0 1.402,0.102 1.992,0.067 0.59,-0.031 3.32,-0.301 3.691,-0.473 0.372,-0.168 3.54,-0.914 3.832,-0.984 0.297,-0.067 1.149,-0.203 1.29,-0.27 0.148,-0.07 1.218,-0.609 1.441,-0.715 0.223,-0.101 1.473,-0.746 1.473,-0.746 l 6.418,7.875 -2.434,3.055 -5.531,0.066 c 0,0 -0.664,-0.066 -0.813,-0.035 -0.144,0.035 -0.957,0.067 -1.511,0.27 -0.551,0.203 -1.106,0.273 -1.399,0.781 -0.297,0.508 -0.555,0.883 -0.738,1.188 -0.188,0.304 -0.883,2.171 -0.883,2.41 0,0.234 -0.078,2 -0.078,2.308 0,0.301 0.332,1.696 0.48,1.864 0.149,0.171 0.481,0.609 0.887,0.851 0.406,0.235 1.07,0.438 1.398,0.504 0.333,0.07 1.735,0.309 1.883,0.309 0.149,0 2.285,0 2.285,0 0,0 2.028,-0.477 2.176,-0.543 0.149,-0.067 0.739,-0.407 0.961,-0.578 0.223,-0.168 0.957,-0.782 1.215,-0.985 0.258,-0.203 1.145,-1.219 1.219,-1.422 0.074,-0.207 0.293,-1.054 0.371,-1.257 0.07,-0.204 0.441,-1.594 0.402,-1.797 -0.035,-0.203 -0.074,-0.782 -0.148,-0.918 -0.071,-0.137 -0.586,-1.184 -0.586,-1.184 l -0.965,-1.156 2.73,-2.613 12.762,10.718 0.332,26.739 z"
         style="fill:#ffffff;fill-opacity:0.96948398;fill-rule:nonzero;stroke:#505050;stroke-width:0.75000002;stroke-miterlimit:4;stroke-dasharray:none;stroke-opacity:1"
         id="path18" /></g></g></svg>